<svg width="16" height="12" viewBox="0 0 16 12" fill="none" xmlns="http://www.w3.org/2000/svg">
<path fill-rule="evenodd" clip-rule="evenodd" d="M5.84898 0L5.79405 0.000488281C5.46969 0.00728828 3.7589 0.111251 1.97839 1.51123L1.95202 1.5625C1.71777 2.02437 0 5.55666 0 9.82227C0 9.82227 1.16118 11.9111 4.21471 12C4.21471 12 4.68784 11.3331 5.1179 10.7998C3.3546 10.2665 2.70946 9.11133 2.70946 9.11133L2.74108 9.13184C2.79374 9.16553 2.91223 9.23827 3.09655 9.3335C3.09655 9.3335 3.09651 9.37793 3.13952 9.37793C3.18253 9.42237 3.22553 9.42236 3.26854 9.4668C3.6126 9.68902 3.95675 9.82224 4.2578 9.95557C4.8169 10.1778 5.50502 10.3999 6.27916 10.5776C7.31133 10.7554 8.51549 10.8443 9.84873 10.5776C10.4938 10.4443 11.139 10.2667 11.8271 9.95557C12.3002 9.77779 12.8592 9.51133 13.4183 9.11133C13.4183 9.11133 12.7302 10.2665 10.9239 10.7998C10.9755 10.8709 11.0294 10.944 11.0841 11.0166L11.2489 11.2319C11.5495 11.6207 11.8271 11.9556 11.8271 11.9556C14.8806 11.8667 16.0419 9.77782 15.9989 9.82227C15.9989 5.55666 14.2811 2.02437 14.0468 1.5625L14.0235 1.51709C12.24 0.11135 10.529 0.00728828 10.2047 0.000488281L10.1497 0L9.97775 0.222168C12.3432 0.977718 13.4183 2.04443 13.4183 2.04443C11.999 1.2 10.5799 0.844772 9.28964 0.666992C8.30047 0.578102 7.35427 0.578096 6.49412 0.711426C6.45111 0.711426 6.36517 0.755859 6.27916 0.755859C5.76307 0.800299 4.60177 0.977871 3.13952 1.64453C2.62343 1.86675 2.32238 2.04443 2.32238 2.04443C2.32238 2.04443 3.48357 0.933274 5.97801 0.177734L5.84898 0ZM10.5 5C11.3181 5 12 5.66667 12 6.5C12 7.33333 11.3181 8 10.5 8C9.68179 8 8.99997 7.33333 8.99997 6.5C8.99997 5.66667 9.68179 5 10.5 5ZM5.49998 5C6.31816 5 6.99998 5.66667 6.99998 6.5C6.99998 7.33333 6.31816 8 5.49998 8C4.68181 8 3.99999 7.33333 3.99999 6.5C3.99999 5.66667 4.68181 5 5.49998 5Z" fill="white" style="fill:white;fill-opacity:1;"/>
</svg>
