<svg width="14" height="10" viewBox="0 0 14 10" fill="none" xmlns="http://www.w3.org/2000/svg">
<path fill-rule="evenodd" clip-rule="evenodd" d="M1.22366 0H12.7763C13.2681 0 13.6667 0.426421 13.6667 0.954238V9.04576C13.6667 9.57262 13.2676 10 12.7763 10H1.22366C0.73202 10 0.333374 9.57355 0.333374 9.04576V0.954238C0.333374 0.427365 0.732461 0 1.22366 0ZM7.23682 5.87913L11.2188 3.41587C11.3783 3.31729 11.4339 3.10011 11.341 2.92805C11.2489 2.75738 11.046 2.69787 10.8855 2.79738L7.01609 5.19089L3.14675 2.79738C2.98616 2.69787 2.78325 2.75738 2.69113 2.92805C2.59845 3.10011 2.65379 3.31729 2.81341 3.41587L6.7954 5.87913C6.85705 5.9354 6.93602 5.96518 7.01609 5.96378C7.09617 5.96518 7.17518 5.9354 7.23682 5.87913Z" fill="white" style="fill:white;fill-opacity:1;"/>
</svg>
