<svg width="32" height="32" viewBox="0 0 32 32" fill="none" xmlns="http://www.w3.org/2000/svg">
    <path
        d="M26 4H6C5.46957 4 4.96086 4.21071 4.58579 4.58579C4.21071 4.96086 4 5.46957 4 6V26C4 26.5304 4.21071 27.0391 4.58579 27.4142C4.96086 27.7893 5.46957 28 6 28H26C26.5304 28 27.0391 27.7893 27.4142 27.4142C27.7893 27.0391 28 26.5304 28 26V6C28 5.46957 27.7893 4.96086 27.4142 4.58579C27.0391 4.21071 26.5304 4 26 4ZM10 25C9.86864 25.0001 9.73855 24.9743 9.61715 24.9241C9.49576 24.8739 9.38544 24.8003 9.2925 24.7075L7.2925 22.7075C7.10486 22.5199 6.99944 22.2654 6.99944 22C6.99944 21.7346 7.10486 21.4801 7.2925 21.2925C7.48014 21.1049 7.73464 20.9994 8 20.9994C8.26536 20.9994 8.51986 21.1049 8.7075 21.2925L10 22.5863L14.2925 18.2925C14.4801 18.1049 14.7346 17.9994 15 17.9994C15.2654 17.9994 15.5199 18.1049 15.7075 18.2925C15.8951 18.4801 16.0006 18.7346 16.0006 19C16.0006 19.2654 15.8951 19.5199 15.7075 19.7075L10.7075 24.7075C10.6146 24.8003 10.5042 24.8739 10.3828 24.9241C10.2615 24.9743 10.1314 25.0001 10 25ZM25 24C25 24.2652 24.8946 24.5196 24.7071 24.7071C24.5196 24.8946 24.2652 25 24 25H17C16.7348 25 16.4804 24.8946 16.2929 24.7071C16.1054 24.5196 16 24.2652 16 24C16 23.7348 16.1054 23.4804 16.2929 23.2929C16.4804 23.1054 16.7348 23 17 23H23V9H9V17C9 17.2652 8.89464 17.5196 8.70711 17.7071C8.51957 17.8946 8.26522 18 8 18C7.73478 18 7.48043 17.8946 7.29289 17.7071C7.10536 17.5196 7 17.2652 7 17V8C7 7.73478 7.10536 7.48043 7.29289 7.29289C7.48043 7.10536 7.73478 7 8 7H24C24.2652 7 24.5196 7.10536 24.7071 7.29289C24.8946 7.48043 25 7.73478 25 8V24Z"
        fill="#202224"
        style="fill:#202224;fill:color(display-p3 0.1255 0.1333 0.1412);fill-opacity:1;" />
</svg>