<svg width="20" height="20" viewBox="0 0 20 20" fill="none" xmlns="http://www.w3.org/2000/svg">
<g id="ClockCountdown">
<path id="Vector" d="M16.2496 7.49993C16.2496 7.31451 16.3046 7.13325 16.4076 6.97908C16.5106 6.82491 16.657 6.70475 16.8283 6.63379C16.9996 6.56283 17.1881 6.54427 17.37 6.58044C17.5518 6.61661 17.7189 6.7059 17.85 6.83701C17.9811 6.96813 18.0704 7.13517 18.1066 7.31703C18.1427 7.49889 18.1242 7.68739 18.0532 7.85869C17.9822 8.03 17.8621 8.17641 17.7079 8.27943C17.5537 8.38244 17.3725 8.43743 17.1871 8.43743C16.9384 8.43743 16.7 8.33865 16.5242 8.16284C16.3483 7.98702 16.2496 7.74857 16.2496 7.49993ZM15.3121 5.62493C15.4975 5.62493 15.6787 5.56994 15.8329 5.46693C15.9871 5.36392 16.1072 5.2175 16.1782 5.04619C16.2492 4.87489 16.2677 4.68639 16.2316 4.50453C16.1954 4.32267 16.1061 4.15563 15.975 4.02451C15.8439 3.8934 15.6768 3.80411 15.495 3.76794C15.3131 3.73177 15.1246 3.75033 14.9533 3.82129C14.782 3.89225 14.6356 4.01241 14.5326 4.16658C14.4296 4.32075 14.3746 4.50201 14.3746 4.68743C14.3746 4.93607 14.4733 5.17452 14.6492 5.35034C14.825 5.52615 15.0634 5.62493 15.3121 5.62493ZM17.5511 9.99993C17.386 9.98631 17.2222 10.0388 17.0958 10.1459C16.9694 10.253 16.8906 10.4059 16.8769 10.571C16.7651 11.8776 16.2823 13.1251 15.4856 14.1667C14.6888 15.2083 13.6111 16.0006 12.3793 16.4505C11.1475 16.9003 9.8128 16.989 8.5323 16.7061C7.2518 16.4231 6.07875 15.7804 5.15117 14.8534C4.22358 13.9264 3.58006 12.7537 3.29632 11.4734C3.01258 10.1931 3.10043 8.85834 3.54952 7.62625C3.99861 6.39416 4.79027 5.31596 5.83134 4.51853C6.87242 3.72109 8.11959 3.2376 9.42613 3.12493C9.50821 3.11815 9.58814 3.09528 9.66138 3.05762C9.73462 3.01995 9.79972 2.96823 9.85297 2.90541C9.90622 2.84258 9.94657 2.76989 9.97172 2.69147C9.99688 2.61305 10.0063 2.53044 9.99957 2.44836C9.9928 2.36629 9.96992 2.28635 9.93226 2.21311C9.8946 2.13987 9.84287 2.07477 9.78005 2.02152C9.71722 1.96828 9.64453 1.92792 9.56611 1.90277C9.48769 1.87762 9.40508 1.86815 9.323 1.87493C7.77927 2.00771 6.30558 2.57863 5.0753 3.52052C3.84502 4.4624 2.90934 5.73607 2.37834 7.19167C1.84734 8.64727 1.74311 10.2242 2.07792 11.7371C2.41272 13.2499 3.17263 14.6356 4.26825 15.7312C5.36386 16.8269 6.74959 17.5868 8.26242 17.9216C9.77524 18.2564 11.3522 18.1522 12.8078 17.6212C14.2634 17.0902 15.5371 16.1545 16.479 14.9242C17.4209 13.6939 17.9918 12.2202 18.1246 10.6765C18.1316 10.5944 18.1224 10.5116 18.0973 10.4331C18.0723 10.3546 18.0319 10.2818 17.9786 10.2189C17.9253 10.156 17.8601 10.1043 17.7868 10.0667C17.7134 10.0291 17.6333 10.0064 17.5511 9.99993ZM9.99957 4.37493C11.1121 4.37493 12.1996 4.70483 13.1247 5.32291C14.0497 5.94099 14.7706 6.8195 15.1964 7.84733C15.6221 8.87517 15.7335 10.0062 15.5165 11.0973C15.2994 12.1885 14.7637 13.1907 13.977 13.9774C13.1904 14.7641 12.1881 15.2998 11.097 15.5168C10.0058 15.7339 8.87481 15.6225 7.84697 15.1967C6.81914 14.771 5.94063 14.05 5.32255 13.125C4.70447 12.2 4.37457 11.1124 4.37457 9.99993C4.37622 8.50859 4.96939 7.07881 6.02392 6.02428C7.07845 4.96974 8.50823 4.37658 9.99957 4.37493ZM9.37457 9.99993C9.37457 10.1657 9.44042 10.3247 9.55763 10.4419C9.67484 10.5591 9.83381 10.6249 9.99957 10.6249H13.7496C13.9153 10.6249 14.0743 10.5591 14.1915 10.4419C14.3087 10.3247 14.3746 10.1657 14.3746 9.99993C14.3746 9.83417 14.3087 9.67519 14.1915 9.55798C14.0743 9.44077 13.9153 9.37493 13.7496 9.37493H10.6246V6.24993C10.6246 6.08417 10.5587 5.92519 10.4415 5.80798C10.3243 5.69077 10.1653 5.62493 9.99957 5.62493C9.83381 5.62493 9.67484 5.69077 9.55763 5.80798C9.44042 5.92519 9.37457 6.08417 9.37457 6.24993V9.99993ZM12.4996 3.74993C12.685 3.74993 12.8662 3.69494 13.0204 3.59193C13.1746 3.48891 13.2947 3.3425 13.3657 3.17119C13.4367 2.99989 13.4552 2.81139 13.4191 2.62953C13.3829 2.44767 13.2936 2.28063 13.1625 2.14951C13.0314 2.0184 12.8643 1.92911 12.6825 1.89294C12.5006 1.85677 12.3121 1.87533 12.1408 1.94629C11.9695 2.01725 11.8231 2.13741 11.7201 2.29158C11.6171 2.44575 11.5621 2.62701 11.5621 2.81243C11.5621 3.06107 11.6608 3.29952 11.8367 3.47534C12.0125 3.65115 12.2509 3.74993 12.4996 3.74993Z" fill="white" style="fill:white;fill-opacity:1;"/>
</g>
</svg>
