<svg width="20" height="20" viewBox="0 0 20 20" fill="none" xmlns="http://www.w3.org/2000/svg">
    <path
        d="M10 1.875C8.39303 1.875 6.82214 2.35152 5.486 3.24431C4.14985 4.1371 3.10844 5.40605 2.49348 6.8907C1.87852 8.37535 1.71762 10.009 2.03112 11.5851C2.34463 13.1612 3.11846 14.6089 4.25476 15.7452C5.39106 16.8815 6.8388 17.6554 8.4149 17.9689C9.99099 18.2824 11.6247 18.1215 13.1093 17.5065C14.594 16.8916 15.8629 15.8502 16.7557 14.514C17.6485 13.1779 18.125 11.607 18.125 10C18.1227 7.84581 17.266 5.78051 15.7427 4.25727C14.2195 2.73403 12.1542 1.87727 10 1.875ZM12.5 12.1875C12.5 12.2704 12.4671 12.3499 12.4085 12.4085C12.3499 12.4671 12.2704 12.5 12.1875 12.5H7.8125C7.72962 12.5 7.65014 12.4671 7.59153 12.4085C7.53293 12.3499 7.5 12.2704 7.5 12.1875V7.8125C7.5 7.72962 7.53293 7.65013 7.59153 7.59153C7.65014 7.53292 7.72962 7.5 7.8125 7.5H12.1875C12.2704 7.5 12.3499 7.53292 12.4085 7.59153C12.4671 7.65013 12.5 7.72962 12.5 7.8125V12.1875Z"
        fill="white" style="fill:white;fill-opacity:1;" />
</svg>