<svg width="20" height="20" viewBox="0 0 20 20" fill="none" xmlns="http://www.w3.org/2000/svg">
    <path
        d="M10 1.875C8.39303 1.875 6.82214 2.35152 5.486 3.24431C4.14985 4.1371 3.10844 5.40605 2.49348 6.8907C1.87852 8.37535 1.71762 10.009 2.03112 11.5851C2.34463 13.1612 3.11846 14.6089 4.25476 15.7452C5.39106 16.8815 6.8388 17.6554 8.4149 17.9689C9.99099 18.2824 11.6247 18.1215 13.1093 17.5065C14.594 16.8916 15.8629 15.8502 16.7557 14.514C17.6485 13.1779 18.125 11.607 18.125 10C18.1227 7.84581 17.266 5.78051 15.7427 4.25727C14.2195 2.73403 12.1542 1.87727 10 1.875ZM13.168 10.5141L9.10547 13.3266C9.01169 13.3914 8.90194 13.4294 8.78813 13.4363C8.67432 13.4433 8.56077 13.419 8.45978 13.366C8.3588 13.3131 8.27422 13.2335 8.21521 13.1359C8.1562 13.0384 8.125 12.9265 8.125 12.8125V7.1875C8.125 7.07347 8.1562 6.96162 8.21521 6.86405C8.27422 6.76649 8.3588 6.68692 8.45978 6.63397C8.56077 6.58103 8.67432 6.55671 8.78813 6.56367C8.90194 6.57063 9.01169 6.60859 9.10547 6.67344L13.168 9.48594C13.2511 9.54344 13.3191 9.62025 13.366 9.70978C13.413 9.79932 13.4375 9.8989 13.4375 10C13.4375 10.1011 13.413 10.2007 13.366 10.2902C13.3191 10.3798 13.2511 10.4566 13.168 10.5141Z"
        fill="white" style="fill:white;fill-opacity:1;" />
</svg>