<svg width="70" height="70" viewBox="0 0 70 70" fill="none" xmlns="http://www.w3.org/2000/svg">
<circle cx="35" cy="35" r="35" fill="white" style="fill:white;fill-opacity:1;"/>
<path d="M35.3501 14.584C36.0659 14.584 36.7641 14.6793 37.4186 14.8698C38.0731 15.0604 38.6856 15.2976 39.2596 15.599C39.8283 15.9004 40.3446 16.227 40.7821 16.5907C41.2336 16.9562 41.5888 17.3295 41.8671 17.7107C42.4848 18.5759 42.9521 19.5268 43.2636 20.567C43.5768 21.6073 43.7956 22.5815 43.9111 23.5032C44.0609 24.5765 44.1241 25.6626 44.1001 26.7484C44.275 26.8515 44.415 27.0187 44.5078 27.2404C44.6023 27.4309 44.6898 27.6682 44.7475 27.9695C44.807 28.2709 44.814 28.6307 44.7633 29.0662C44.7123 29.5358 44.5942 29.9933 44.4133 30.4215C44.2453 30.7637 44.0721 31.0243 43.8743 31.2148C43.6726 31.4206 43.4314 31.5729 43.1691 31.6601C43.0746 32.0879 42.9591 32.5157 42.8348 32.9143C42.7106 33.2643 42.5653 33.6123 42.4113 33.9448C42.2451 34.287 42.0701 34.5476 41.8741 34.7382L41.566 35.0246L41.2406 35.2865C41.0527 35.421 40.8768 35.5753 40.7156 35.7473C40.56 35.9157 40.4342 36.1148 40.3446 36.3345C40.2501 36.564 40.1696 36.8401 40.1188 37.1668C40.0471 37.5712 40.0243 37.9834 40.0471 38.4054C40.0681 38.8176 40.1696 39.2454 40.3446 39.6576C40.5196 40.0718 40.8031 40.4743 41.2021 40.8573C41.5976 41.2384 42.1348 41.5709 42.8051 41.8723C43.4228 42.1426 44.107 42.3798 44.835 42.5782C45.57 42.7843 48.5188 44.1648 49.196 44.4507C49.8733 44.7365 50.484 45.0923 51.016 45.522C51.5323 45.9984 51.9103 46.5623 52.136 47.2682C52.2279 47.5715 52.305 47.9415 52.3622 48.3758L52.4125 48.8315C52.4702 49.4654 52.5 48.9579 52.5 49.5937C52.5 50.2276 52.4562 50.8304 52.3775 51.402C52.29 51.9737 52.1588 52.4015 51.9908 52.6951C51.8887 52.8539 51.6225 53.0181 51.2004 53.1967L50.7556 53.3662C49.5764 53.7579 43.734 55.4173 35.7229 55.4173C27.9127 55.4173 21.1875 54.0368 20.1182 53.7743C19.0473 53.5137 18.4068 53.2901 18.181 53.1073C17.9391 52.9134 17.7534 52.3859 17.6229 51.5172L17.5703 51.124C17.439 50.0137 17.4898 49.7357 17.7383 48.0051C17.8905 47.0057 18.2633 46.2454 18.8513 45.7359C19.4847 45.2006 20.1962 44.7902 20.9547 44.5226L24.921 43.0611C25.4014 42.8892 25.8234 42.7418 26.1158 42.6469L26.3622 42.5704C27.2214 42.3254 27.9722 41.9754 28.6127 41.5145C29.0524 41.2347 29.4582 40.8936 29.8202 40.4995C30.1037 40.1748 30.3084 39.8482 30.4169 39.5234C30.5254 39.1987 30.5849 38.8643 30.5849 38.5084C30.5849 38.1584 30.5692 37.7773 30.5482 37.3651C30.4957 36.7137 30.3084 36.214 29.9724 35.8659C29.6382 35.5159 29.2672 35.1523 28.8367 34.7712C28.615 34.5495 28.4369 34.2795 28.3134 33.9779C28.1641 33.6411 28.028 33.2973 27.9057 32.9473L27.5347 31.6912C27.3455 31.6321 27.1676 31.5352 27.0097 31.4054C26.8288 31.2364 26.6656 31.0453 26.5232 30.8357C26.3482 30.5887 26.2029 30.2387 26.0717 29.7798C25.9492 29.3268 25.9037 28.9048 25.9492 28.5412C25.9842 28.1757 26.0507 27.8607 26.1522 27.5884C26.2467 27.2871 26.3989 27.0109 26.6037 26.7329C26.5783 25.7007 26.6292 24.668 26.7559 23.6451C26.8656 22.7096 27.0459 21.7859 27.2949 20.884C27.5574 19.9079 27.9354 19.027 28.4307 18.2493C28.9032 17.5201 29.4282 16.9173 30.0092 16.4409C30.5919 15.9645 31.1817 15.5912 31.7766 15.3229C32.3585 15.0609 32.9639 14.8693 33.5826 14.7512C34.1671 14.6458 34.758 14.5899 35.3501 14.584Z" fill="#202224" style="fill:#202224;fill:color(display-p3 0.1255 0.1333 0.1412);fill-opacity:1;"/>
</svg>
