<svg width="24" height="24" viewBox="0 0 24 24" fill="none" xmlns="http://www.w3.org/2000/svg">
<path d="M20.7806 8.46938L15.5306 3.21938C15.4609 3.14975 15.3782 3.09454 15.2871 3.0569C15.1961 3.01926 15.0985 2.99992 15 3H3.75C3.55109 3 3.36032 3.07902 3.21967 3.21967C3.07902 3.36032 3 3.55109 3 3.75V15C3.00008 15.1968 3.07753 15.3857 3.21562 15.5259L8.46563 20.7759C8.53539 20.8469 8.61856 20.9032 8.7103 20.9417C8.80204 20.9801 8.90052 21 9 21H20.25C20.4489 21 20.6397 20.921 20.7803 20.7803C20.921 20.6397 21 20.4489 21 20.25V9C21.0001 8.90148 20.9807 8.80391 20.9431 8.71286C20.9055 8.62182 20.8503 8.53908 20.7806 8.46938ZM15.75 5.56031L18.4397 8.25H15.75V5.56031ZM8.25 18.4397L5.56031 15.75H8.25V18.4397ZM8.25 14.25H4.5V5.56031L8.25 9.31031V14.25ZM5.56031 4.5H14.25V8.25H9.31031L5.56031 4.5ZM14.25 9.75V14.25H9.75V9.75H14.25ZM9.75 19.5V15.75H14.6897L18.4397 19.5H9.75ZM19.5 18.4397L15.75 14.6897V9.75H19.5V18.4397Z" fill="white" style="fill:white;fill-opacity:1;"/>
</svg>
