<svg width="60" height="61" viewBox="0 0 60 61" fill="none" xmlns="http://www.w3.org/2000/svg">
<rect y="0.5" width="60" height="60" rx="23" fill="#F3AB00" fill-opacity="0.1" style="fill:#F3AB00;fill:color(display-p3 0.9529 0.6706 0.0000);fill-opacity:0.1;"/>
<path d="M42.5 15.5H17.5C16.837 15.5 16.2011 15.7634 15.7322 16.2322C15.2634 16.7011 15 17.337 15 18V43C15 43.663 15.2634 44.2989 15.7322 44.7678C16.2011 45.2366 16.837 45.5 17.5 45.5H42.5C43.163 45.5 43.7989 45.2366 44.2678 44.7678C44.7366 44.2989 45 43.663 45 43V18C45 17.337 44.7366 16.7011 44.2678 16.2322C43.7989 15.7634 43.163 15.5 42.5 15.5ZM22.5 41.75C22.3358 41.7501 22.1732 41.7179 22.0214 41.6552C21.8697 41.5924 21.7318 41.5004 21.6156 41.3844L19.1156 38.8844C18.8811 38.6498 18.7493 38.3317 18.7493 38C18.7493 37.6683 18.8811 37.3502 19.1156 37.1156C19.3502 36.8811 19.6683 36.7493 20 36.7493C20.3317 36.7493 20.6498 36.8811 20.8844 37.1156L22.5 38.7328L27.8656 33.3656C28.1002 33.1311 28.4183 32.9993 28.75 32.9993C29.0817 32.9993 29.3998 33.1311 29.6344 33.3656C29.8689 33.6002 30.0007 33.9183 30.0007 34.25C30.0007 34.5817 29.8689 34.8998 29.6344 35.1344L23.3844 41.3844C23.2682 41.5004 23.1303 41.5924 22.9786 41.6552C22.8268 41.7179 22.6642 41.7501 22.5 41.75ZM41.25 40.5C41.25 40.8315 41.1183 41.1495 40.8839 41.3839C40.6495 41.6183 40.3315 41.75 40 41.75H31.25C30.9185 41.75 30.6005 41.6183 30.3661 41.3839C30.1317 41.1495 30 40.8315 30 40.5C30 40.1685 30.1317 39.8505 30.3661 39.6161C30.6005 39.3817 30.9185 39.25 31.25 39.25H38.75V21.75H21.25V31.75C21.25 32.0815 21.1183 32.3995 20.8839 32.6339C20.6495 32.8683 20.3315 33 20 33C19.6685 33 19.3505 32.8683 19.1161 32.6339C18.8817 32.3995 18.75 32.0815 18.75 31.75V20.5C18.75 20.1685 18.8817 19.8505 19.1161 19.6161C19.3505 19.3817 19.6685 19.25 20 19.25H40C40.3315 19.25 40.6495 19.3817 40.8839 19.6161C41.1183 19.8505 41.25 20.1685 41.25 20.5V40.5Z" fill="#F3AB00" style="fill:#F3AB00;fill:color(display-p3 0.9522 0.6710 0.0000);fill-opacity:1;"/>
</svg>
