<svg width="40" height="41" viewBox="0 0 40 41" fill="none" xmlns="http://www.w3.org/2000/svg">
<path d="M6.25 16.75V24.25C6.25 27.8967 7.69866 31.3941 10.2773 33.9727C12.8559 36.5513 16.3533 38 20 38C23.6467 38 27.1441 36.5513 29.7227 33.9727C32.3013 31.3941 33.75 27.8967 33.75 24.25V10.5C33.75 9.83696 33.4866 9.20107 33.0178 8.73223C32.5489 8.26339 31.913 8 31.25 8C30.587 8 29.9511 8.26339 29.4822 8.73223C29.0134 9.20107 28.75 9.83696 28.75 10.5V19.25C28.75 19.5815 28.6183 19.8995 28.3839 20.1339C28.1495 20.3683 27.8315 20.5 27.5 20.5C27.1685 20.5 26.8505 20.3683 26.6161 20.1339C26.3817 19.8995 26.25 19.5815 26.25 19.25V5.5C26.25 4.83696 25.9866 4.20107 25.5178 3.73223C25.0489 3.26339 24.413 3 23.75 3C23.087 3 22.4511 3.26339 21.9822 3.73223C21.5134 4.20107 21.25 4.83696 21.25 5.5V18C21.25 18.3315 21.1183 18.6495 20.8839 18.8839C20.6495 19.1183 20.3315 19.25 20 19.25C19.6685 19.25 19.3505 19.1183 19.1161 18.8839C18.8817 18.6495 18.75 18.3315 18.75 18V8C18.75 7.33696 18.4866 6.70107 18.0178 6.23223C17.5489 5.76339 16.913 5.5 16.25 5.5C15.587 5.5 14.9511 5.76339 14.4822 6.23223C14.0134 6.70107 13.75 7.33696 13.75 8V20.6047C15.4966 20.9024 17.0817 21.8079 18.2253 23.1611C19.369 24.5144 19.9976 26.2282 20 28C20 28.3315 19.8683 28.6495 19.6339 28.8839C19.3995 29.1183 19.0815 29.25 18.75 29.25C18.4185 29.25 18.1005 29.1183 17.8661 28.8839C17.6317 28.6495 17.5 28.3315 17.5 28C17.5 26.6739 16.9732 25.4021 16.0355 24.4645C15.0979 23.5268 13.8261 23 12.5 23C12.1685 23 11.8505 22.8683 11.6161 22.6339C11.3817 22.3995 11.25 22.0815 11.25 21.75V16.75C11.25 16.087 10.9866 15.4511 10.5178 14.9822C10.0489 14.5134 9.41304 14.25 8.75 14.25C8.08696 14.25 7.45107 14.5134 6.98223 14.9822C6.51339 15.4511 6.25 16.087 6.25 16.75Z" fill="#00B624" style="fill:#00B624;fill:color(display-p3 0.0000 0.7137 0.1427);fill-opacity:1;"/>
</svg>
