<svg width="60" height="61" viewBox="0 0 60 61" fill="none" xmlns="http://www.w3.org/2000/svg">
<path d="M34.6875 9.875C34.6875 10.1236 34.5887 10.3621 34.4129 10.5379C34.2371 10.7137 33.9986 10.8125 33.75 10.8125H26.25C26.0014 10.8125 25.7629 10.7137 25.5871 10.5379C25.4113 10.3621 25.3125 10.1236 25.3125 9.875C25.3125 9.62636 25.4113 9.3879 25.5871 9.21209C25.7629 9.03627 26.0014 8.9375 26.25 8.9375H33.75C33.9986 8.9375 34.2371 9.03627 34.4129 9.21209C34.5887 9.3879 34.6875 9.62636 34.6875 9.875ZM33.75 50.1875H26.25C26.0014 50.1875 25.7629 50.2863 25.5871 50.4621C25.4113 50.6379 25.3125 50.8764 25.3125 51.125C25.3125 51.3736 25.4113 51.6121 25.5871 51.7879C25.7629 51.9637 26.0014 52.0625 26.25 52.0625H33.75C33.9986 52.0625 34.2371 51.9637 34.4129 51.7879C34.5887 51.6121 34.6875 51.3736 34.6875 51.125C34.6875 50.8764 34.5887 50.6379 34.4129 50.4621C34.2371 50.2863 33.9986 50.1875 33.75 50.1875ZM48.75 8.9375H43.125C42.8764 8.9375 42.6379 9.03627 42.4621 9.21209C42.2863 9.3879 42.1875 9.62636 42.1875 9.875C42.1875 10.1236 42.2863 10.3621 42.4621 10.5379C42.6379 10.7137 42.8764 10.8125 43.125 10.8125H48.75C48.9986 10.8125 49.2371 10.9113 49.4129 11.0871C49.5887 11.2629 49.6875 11.5014 49.6875 11.75V17.375C49.6875 17.6236 49.7863 17.8621 49.9621 18.0379C50.1379 18.2137 50.3764 18.3125 50.625 18.3125C50.8736 18.3125 51.1121 18.2137 51.2879 18.0379C51.4637 17.8621 51.5625 17.6236 51.5625 17.375V11.75C51.5625 11.0041 51.2662 10.2887 50.7387 9.76126C50.2113 9.23382 49.4959 8.9375 48.75 8.9375ZM50.625 25.8125C50.3764 25.8125 50.1379 25.9113 49.9621 26.0871C49.7863 26.2629 49.6875 26.5014 49.6875 26.75V34.25C49.6875 34.4986 49.7863 34.7371 49.9621 34.9129C50.1379 35.0887 50.3764 35.1875 50.625 35.1875C50.8736 35.1875 51.1121 35.0887 51.2879 34.9129C51.4637 34.7371 51.5625 34.4986 51.5625 34.25V26.75C51.5625 26.5014 51.4637 26.2629 51.2879 26.0871C51.1121 25.9113 50.8736 25.8125 50.625 25.8125ZM50.625 42.6875C50.3764 42.6875 50.1379 42.7863 49.9621 42.9621C49.7863 43.1379 49.6875 43.3764 49.6875 43.625V49.25C49.6875 49.4986 49.5887 49.7371 49.4129 49.9129C49.2371 50.0887 48.9986 50.1875 48.75 50.1875H43.125C42.8764 50.1875 42.6379 50.2863 42.4621 50.4621C42.2863 50.6379 42.1875 50.8764 42.1875 51.125C42.1875 51.3736 42.2863 51.6121 42.4621 51.7879C42.6379 51.9637 42.8764 52.0625 43.125 52.0625H48.75C49.4959 52.0625 50.2113 51.7662 50.7387 51.2387C51.2662 50.7113 51.5625 49.9959 51.5625 49.25V43.625C51.5625 43.3764 51.4637 43.1379 51.2879 42.9621C51.1121 42.7863 50.8736 42.6875 50.625 42.6875ZM9.375 35.1875C9.62364 35.1875 9.8621 35.0887 10.0379 34.9129C10.2137 34.7371 10.3125 34.4986 10.3125 34.25V26.75C10.3125 26.5014 10.2137 26.2629 10.0379 26.0871C9.8621 25.9113 9.62364 25.8125 9.375 25.8125C9.12636 25.8125 8.8879 25.9113 8.71209 26.0871C8.53627 26.2629 8.4375 26.5014 8.4375 26.75V34.25C8.4375 34.4986 8.53627 34.7371 8.71209 34.9129C8.8879 35.0887 9.12636 35.1875 9.375 35.1875ZM16.875 50.1875H11.25C11.0014 50.1875 10.7629 50.0887 10.5871 49.9129C10.4113 49.7371 10.3125 49.4986 10.3125 49.25V43.625C10.3125 43.3764 10.2137 43.1379 10.0379 42.9621C9.8621 42.7863 9.62364 42.6875 9.375 42.6875C9.12636 42.6875 8.8879 42.7863 8.71209 42.9621C8.53627 43.1379 8.4375 43.3764 8.4375 43.625V49.25C8.4375 49.9959 8.73382 50.7113 9.26126 51.2387C9.78871 51.7662 10.5041 52.0625 11.25 52.0625H16.875C17.1236 52.0625 17.3621 51.9637 17.5379 51.7879C17.7137 51.6121 17.8125 51.3736 17.8125 51.125C17.8125 50.8764 17.7137 50.6379 17.5379 50.4621C17.3621 50.2863 17.1236 50.1875 16.875 50.1875ZM16.875 8.9375H11.25C10.5041 8.9375 9.78871 9.23382 9.26126 9.76126C8.73382 10.2887 8.4375 11.0041 8.4375 11.75V17.375C8.4375 17.6236 8.53627 17.8621 8.71209 18.0379C8.8879 18.2137 9.12636 18.3125 9.375 18.3125C9.62364 18.3125 9.8621 18.2137 10.0379 18.0379C10.2137 17.8621 10.3125 17.6236 10.3125 17.375V11.75C10.3125 11.5014 10.4113 11.2629 10.5871 11.0871C10.7629 10.9113 11.0014 10.8125 11.25 10.8125H16.875C17.1236 10.8125 17.3621 10.7137 17.5379 10.5379C17.7137 10.3621 17.8125 10.1236 17.8125 9.875C17.8125 9.62636 17.7137 9.3879 17.5379 9.21209C17.3621 9.03627 17.1236 8.9375 16.875 8.9375Z" fill="white" style="fill:white;fill-opacity:1;"/>
</svg>
