<svg width="17" height="16" viewBox="0 0 17 16" fill="none" xmlns="http://www.w3.org/2000/svg">
<g opacity="0.5">
<path d="M13.333 1.75H3.33301C3.00149 1.75 2.68354 1.8817 2.44912 2.11612C2.2147 2.35054 2.08301 2.66848 2.08301 3V13C2.08301 13.3315 2.2147 13.6495 2.44912 13.8839C2.68354 14.1183 3.00149 14.25 3.33301 14.25H13.333C13.6645 14.25 13.9825 14.1183 14.2169 13.8839C14.4513 13.6495 14.583 13.3315 14.583 13V3C14.583 2.66848 14.4513 2.35054 14.2169 2.11612C13.9825 1.8817 13.6645 1.75 13.333 1.75ZM13.083 12.75H3.58301V3.25H13.083V12.75ZM5.80238 10.5306C5.73246 10.4609 5.67699 10.3782 5.63913 10.287C5.60128 10.1958 5.58179 10.0981 5.58179 9.99938C5.58179 9.90067 5.60128 9.80293 5.63913 9.71176C5.67699 9.6206 5.73246 9.5378 5.80238 9.46813L8.52051 6.75H7.33301C7.1341 6.75 6.94333 6.67098 6.80268 6.53033C6.66203 6.38968 6.58301 6.19891 6.58301 6C6.58301 5.80109 6.66203 5.61032 6.80268 5.46967C6.94333 5.32902 7.1341 5.25 7.33301 5.25H10.333C10.5319 5.25 10.7227 5.32902 10.8633 5.46967C11.004 5.61032 11.083 5.80109 11.083 6V9C11.083 9.19891 11.004 9.38968 10.8633 9.53033C10.7227 9.67098 10.5319 9.75 10.333 9.75C10.1341 9.75 9.94333 9.67098 9.80268 9.53033C9.66203 9.38968 9.58301 9.19891 9.58301 9V7.8125L6.86363 10.5325C6.79395 10.6024 6.71116 10.6579 6.62 10.6958C6.52883 10.7336 6.43109 10.7531 6.33238 10.7531C6.23367 10.7531 6.13593 10.7336 6.04477 10.6958C5.9536 10.6579 5.87081 10.6024 5.80113 10.5325L5.80238 10.5306Z" fill="white" style="fill:white;fill-opacity:1;"/>
</g>
</svg>
