<svg width="128" height="26" viewBox="0 0 128 26" fill="none" xmlns="http://www.w3.org/2000/svg">
<g clip-path="url(#clip0_793_1423)">
<path fill-rule="evenodd" clip-rule="evenodd" d="M10.0501 10.4L9.18339 26H0.516724V17.3333L10.0501 10.4ZM10.0501 10.4L26.5167 17.3333V26H17.8501L10.0501 10.4ZM9.18339 0L10.0501 10.4L0.516724 8.66667V0H9.18339ZM26.5167 0V8.66667L10.0501 10.4L17.8501 0H26.5167ZM38.6501 7.00523H43.826C45.1184 7.00523 46.1182 7.13106 46.8254 7.38272C48.1301 7.85008 49.0019 8.7069 49.4408 9.95318C49.77 10.9119 49.9346 11.9365 49.9346 13.027C49.9346 14.1055 49.7761 15.1241 49.4591 16.0828C49.1421 17.0654 48.6178 17.7904 47.8862 18.2578C47.4229 18.5454 46.9138 18.7401 46.359 18.842C45.8043 18.9438 44.9599 18.9948 43.826 18.9948H38.6501V7.00523ZM41.2472 9.14429V16.8557H43.826C44.9599 16.8557 45.7463 16.61 46.1853 16.1187C46.4535 15.8071 46.67 15.3697 46.8346 14.8065C46.9992 14.2433 47.0815 13.6441 47.0815 13.009C47.0815 12.302 46.9839 11.6548 46.7888 11.0677C46.5938 10.4805 46.3377 10.0431 46.0207 9.75546C45.5574 9.34802 44.8258 9.14429 43.826 9.14429H41.2472ZM62.4274 7.00523V9.14429H59.0438C58.1659 9.14429 57.5258 9.20421 57.1234 9.32405C56.7211 9.44388 56.3858 9.67756 56.1175 10.0251C55.9346 10.2648 55.8096 10.5044 55.7426 10.7441C55.6755 10.9838 55.6176 11.3912 55.5688 11.9664H62.4274V14.1055H55.5688C55.6664 15.1361 55.9773 15.8521 56.5016 16.2535C57.0259 16.655 57.916 16.8557 59.1718 16.8557H62.4274V18.9948H59.0438C58.1293 18.9948 57.3246 18.9408 56.6296 18.833C55.5322 18.6532 54.6605 18.1799 54.0142 17.4129C53.0876 16.3105 52.6242 14.8185 52.6242 12.9371C52.6242 10.8519 53.2766 9.22818 54.5812 8.06578C55.0323 7.67032 55.5109 7.3947 56.0169 7.23891C56.5229 7.08313 57.2027 7.00523 58.0562 7.00523H62.4274ZM70.2563 11.8765H76.2369V18.9948H70.7867C69.8478 18.9948 69.101 18.9259 68.5462 18.7881C67.9915 18.6502 67.4885 18.4076 67.0374 18.0601C65.7571 17.0894 65.117 15.4177 65.117 13.0449C65.117 11.4991 65.4218 10.2108 66.0314 9.18025C66.4826 8.42529 67.0983 7.87404 67.8787 7.52652C68.659 7.179 69.671 7.00523 70.9147 7.00523H76.2369V9.14429H71.2073C70.1222 9.14429 69.3357 9.37798 68.848 9.84533C68.2627 10.3966 67.9701 11.3852 67.9701 12.8113C67.9701 13.5423 68.0463 14.2013 68.1987 14.7885C68.3511 15.3757 68.5615 15.8131 68.8297 16.1007C69.0614 16.3644 69.3814 16.5561 69.7899 16.676C70.1984 16.7958 70.7013 16.8557 71.2988 16.8557H73.6581V14.0156H70.2563V11.8765ZM84.9438 6.93333C86.163 6.93333 87.236 7.13705 88.1627 7.54449C89.2479 8.03582 90.0099 8.85669 90.4489 10.0071C90.7903 10.9059 90.961 11.9604 90.961 13.1708C90.961 14.3931 90.7537 15.4536 90.3391 16.3524C89.8148 17.4189 89.0101 18.1679 87.9249 18.5993C87.1202 18.9109 86.1935 19.0667 85.1449 19.0667C83.7671 19.0667 82.5722 18.815 81.5602 18.3117C80.7067 17.8923 80.0544 17.2332 79.6032 16.3344C79.1521 15.4357 78.9265 14.3452 78.9265 13.0629C78.9265 10.7741 79.5057 9.1443 80.664 8.17363C81.6395 7.35875 83.066 6.94532 84.9438 6.93333ZM84.962 8.94657C83.7671 8.94657 82.9136 9.33004 82.4015 10.097C81.987 10.6962 81.7797 11.6608 81.7797 12.991C81.7797 14.3931 82.0357 15.4237 82.5478 16.0828C83.0599 16.7299 83.8708 17.0534 84.9803 17.0534C86.0533 17.0534 86.8428 16.7239 87.3488 16.0648C87.8548 15.4057 88.1078 14.3871 88.1078 13.009C88.1078 11.7507 87.9005 10.792 87.486 10.1329C87.0105 9.35401 86.1691 8.95855 84.962 8.94657ZM95.2769 7.00523L98.8616 16.0288L102.501 7.00523H105.428L100.087 18.9948H97.4899L92.3506 7.00523H95.2769ZM106.43 16.658V18.9948H104.217V16.658H106.43ZM109.12 18.9948L114.168 7.00523H117.149L122.197 18.9948H119.161L117.972 16.2266H113.345L112.156 18.9948H109.12ZM115.667 9.89926L113.93 14.0875H117.405L115.667 9.89926ZM124.886 18.9948V7.00523H127.483V18.9948H124.886Z" fill="white" style="fill:white;fill-opacity:1;"/>
</g>
<defs>
<clipPath id="clip0_793_1423">
<rect width="126.967" height="26" fill="white" style="fill:white;fill-opacity:1;" transform="translate(0.516724)"/>
</clipPath>
</defs>
</svg>
