<svg width="40" height="41" viewBox="0 0 40 41" fill="none" xmlns="http://www.w3.org/2000/svg">
<path d="M36 34.7485C36.1397 34.9342 36.2249 35.1552 36.246 35.3866C36.2671 35.6181 36.2233 35.8508 36.1194 36.0587C36.0155 36.2666 35.8557 36.4414 35.658 36.5636C35.4603 36.6857 35.2324 36.7503 35 36.75H5C4.76786 36.75 4.54031 36.6854 4.34284 36.5634C4.14537 36.4413 3.98578 36.2667 3.88197 36.0591C3.77815 35.8514 3.7342 35.619 3.75505 35.3878C3.7759 35.1566 3.86072 34.9358 4 34.75C5.10685 33.2661 6.58285 32.0977 8.28125 31.361C7.35028 30.5113 6.69796 29.4 6.40992 28.1729C6.12188 26.9458 6.21158 25.6604 6.66724 24.4852C7.1229 23.31 7.92323 22.3 8.96318 21.5879C10.0031 20.8757 11.2341 20.4946 12.4945 20.4946C13.755 20.4946 14.9859 20.8757 16.0259 21.5879C17.0658 22.3 17.8662 23.31 18.3218 24.4852C18.7775 25.6604 18.8672 26.9458 18.5791 28.1729C18.2911 29.4 17.6388 30.5113 16.7078 31.361C17.9332 31.8906 19.0467 32.6484 19.9891 33.5938C20.9315 32.6484 22.045 31.8906 23.2703 31.361C22.3393 30.5113 21.687 29.4 21.399 28.1729C21.1109 26.9458 21.2006 25.6604 21.6563 24.4852C22.112 23.31 22.9123 22.3 23.9522 21.5879C24.9922 20.8757 26.2232 20.4946 27.4836 20.4946C28.744 20.4946 29.975 20.8757 31.0149 21.5879C32.0549 22.3 32.8552 23.31 33.3109 24.4852C33.7665 25.6604 33.8562 26.9458 33.5682 28.1729C33.2802 29.4 32.6278 30.5113 31.6969 31.361C33.4032 32.0938 34.8871 33.2619 36 34.7485ZM4.25 20.25C4.38132 20.3485 4.53076 20.4202 4.68977 20.4609C4.84879 20.5017 5.01427 20.5107 5.17678 20.4875C5.33928 20.4643 5.49562 20.4093 5.63687 20.3256C5.77812 20.242 5.90151 20.1314 6 20C6.75682 18.991 7.73819 18.1719 8.86639 17.6078C9.99459 17.0437 11.2386 16.75 12.5 16.75C13.7614 16.75 15.0054 17.0437 16.1336 17.6078C17.2618 18.1719 18.2432 18.991 19 20C19.1164 20.1553 19.2674 20.2813 19.441 20.3681C19.6146 20.4549 19.8059 20.5 20 20.5C20.1941 20.5 20.3854 20.4549 20.559 20.3681C20.7326 20.2813 20.8836 20.1553 21 20C21.7568 18.991 22.7382 18.1719 23.8664 17.6078C24.9946 17.0437 26.2386 16.75 27.5 16.75C28.7614 16.75 30.0054 17.0437 31.1336 17.6078C32.2618 18.1719 33.2432 18.991 34 20C34.0986 20.1314 34.2221 20.242 34.3634 20.3256C34.5048 20.4092 34.6612 20.4641 34.8238 20.4873C34.9864 20.5104 35.1519 20.5013 35.3109 20.4605C35.47 20.4196 35.6195 20.3479 35.7508 20.2493C35.8821 20.1507 35.9927 20.0272 36.0763 19.8858C36.1599 19.7445 36.2148 19.5881 36.238 19.4255C36.2611 19.2629 36.252 19.0974 36.2112 18.9383C36.1704 18.7793 36.0986 18.6298 36 18.4985C34.8931 17.0149 33.4171 15.847 31.7188 15.111C32.6497 14.2613 33.302 13.15 33.5901 11.9229C33.8781 10.6958 33.7884 9.41036 33.3328 8.23518C32.8771 7.06 32.0768 6.05004 31.0368 5.33788C29.9969 4.62572 28.7659 4.24463 27.5055 4.24463C26.245 4.24463 25.0141 4.62572 23.9741 5.33788C22.9342 6.05004 22.1338 7.06 21.6782 8.23518C21.2225 9.41036 21.1328 10.6958 21.4209 11.9229C21.7089 13.15 22.3612 14.2613 23.2922 15.111C22.0668 15.6406 20.9533 16.3984 20.0109 17.3438C19.0685 16.3984 17.955 15.6406 16.7297 15.111C17.6607 14.2613 18.313 13.15 18.601 11.9229C18.8891 10.6958 18.7994 9.41036 18.3437 8.23518C17.888 7.06 17.0877 6.05004 16.0478 5.33788C15.0078 4.62572 13.7768 4.24463 12.5164 4.24463C11.256 4.24463 10.025 4.62572 8.98505 5.33788C7.9451 6.05004 7.14477 7.06 6.68911 8.23518C6.23345 9.41036 6.14376 10.6958 6.4318 11.9229C6.71984 13.15 7.37215 14.2613 8.30313 15.111C6.59675 15.8444 5.1129 17.0131 4 18.5C3.90151 18.6314 3.82985 18.7808 3.78911 18.9398C3.74837 19.0988 3.73935 19.2643 3.76256 19.4268C3.78578 19.5893 3.84077 19.7457 3.92441 19.8869C4.00804 20.0282 4.11868 20.1516 4.25 20.25Z" fill="#4379EE" style="fill:#4379EE;fill:color(display-p3 0.2627 0.4752 0.9333);fill-opacity:1;"/>
</svg>
 