<svg width="60" height="61" viewBox="0 0 60 61" fill="none" xmlns="http://www.w3.org/2000/svg">
<rect y="0.5" width="60" height="60" rx="23" fill="#4379EE" fill-opacity="0.1" style="fill:#4379EE;fill:color(display-p3 0.2627 0.4745 0.9333);fill-opacity:0.1;"/>
<path d="M46 44.7485C46.1397 44.9342 46.2249 45.1552 46.246 45.3866C46.2671 45.6181 46.2233 45.8508 46.1194 46.0587C46.0155 46.2666 45.8557 46.4414 45.658 46.5636C45.4603 46.6857 45.2324 46.7503 45 46.75H15C14.7679 46.75 14.5403 46.6854 14.3428 46.5634C14.1454 46.4413 13.9858 46.2667 13.882 46.0591C13.7782 45.8514 13.7342 45.619 13.7551 45.3878C13.7759 45.1566 13.8607 44.9358 14 44.75C15.1069 43.2661 16.5828 42.0977 18.2813 41.361C17.3503 40.5113 16.698 39.4 16.4099 38.1729C16.1219 36.9458 16.2116 35.6604 16.6672 34.4852C17.1229 33.31 17.9232 32.3 18.9632 31.5879C20.0031 30.8757 21.2341 30.4946 22.4945 30.4946C23.755 30.4946 24.9859 30.8757 26.0259 31.5879C27.0658 32.3 27.8662 33.31 28.3218 34.4852C28.7775 35.6604 28.8672 36.9458 28.5791 38.1729C28.2911 39.4 27.6388 40.5113 26.7078 41.361C27.9332 41.8906 29.0467 42.6484 29.9891 43.5938C30.9315 42.6484 32.045 41.8906 33.2703 41.361C32.3393 40.5113 31.687 39.4 31.399 38.1729C31.1109 36.9458 31.2006 35.6604 31.6563 34.4852C32.112 33.31 32.9123 32.3 33.9522 31.5879C34.9922 30.8757 36.2232 30.4946 37.4836 30.4946C38.744 30.4946 39.975 30.8757 41.0149 31.5879C42.0549 32.3 42.8552 33.31 43.3109 34.4852C43.7665 35.6604 43.8562 36.9458 43.5682 38.1729C43.2802 39.4 42.6278 40.5113 41.6969 41.361C43.4032 42.0938 44.8871 43.2619 46 44.7485ZM14.25 30.25C14.3813 30.3485 14.5308 30.4202 14.6898 30.4609C14.8488 30.5017 15.0143 30.5107 15.1768 30.4875C15.3393 30.4643 15.4956 30.4093 15.6369 30.3256C15.7781 30.242 15.9015 30.1314 16 30C16.7568 28.991 17.7382 28.1719 18.8664 27.6078C19.9946 27.0437 21.2386 26.75 22.5 26.75C23.7614 26.75 25.0054 27.0437 26.1336 27.6078C27.2618 28.1719 28.2432 28.991 29 30C29.1164 30.1553 29.2674 30.2813 29.441 30.3681C29.6146 30.4549 29.8059 30.5 30 30.5C30.1941 30.5 30.3854 30.4549 30.559 30.3681C30.7326 30.2813 30.8836 30.1553 31 30C31.7568 28.991 32.7382 28.1719 33.8664 27.6078C34.9946 27.0437 36.2386 26.75 37.5 26.75C38.7614 26.75 40.0054 27.0437 41.1336 27.6078C42.2618 28.1719 43.2432 28.991 44 30C44.0986 30.1314 44.2221 30.242 44.3634 30.3256C44.5048 30.4092 44.6612 30.4641 44.8238 30.4873C44.9864 30.5104 45.1519 30.5013 45.3109 30.4605C45.47 30.4196 45.6195 30.3479 45.7508 30.2493C45.8821 30.1507 45.9927 30.0272 46.0763 29.8858C46.1599 29.7445 46.2148 29.5881 46.238 29.4255C46.2611 29.2629 46.252 29.0974 46.2112 28.9383C46.1704 28.7793 46.0986 28.6298 46 28.4985C44.8931 27.0149 43.4171 25.847 41.7188 25.111C42.6497 24.2613 43.302 23.15 43.5901 21.9229C43.8781 20.6958 43.7884 19.4104 43.3328 18.2352C42.8771 17.06 42.0768 16.05 41.0368 15.3379C39.9969 14.6257 38.7659 14.2446 37.5055 14.2446C36.245 14.2446 35.0141 14.6257 33.9741 15.3379C32.9342 16.05 32.1338 17.06 31.6782 18.2352C31.2225 19.4104 31.1328 20.6958 31.4209 21.9229C31.7089 23.15 32.3612 24.2613 33.2922 25.111C32.0668 25.6406 30.9533 26.3984 30.0109 27.3438C29.0685 26.3984 27.955 25.6406 26.7297 25.111C27.6607 24.2613 28.313 23.15 28.601 21.9229C28.8891 20.6958 28.7994 19.4104 28.3437 18.2352C27.888 17.06 27.0877 16.05 26.0478 15.3379C25.0078 14.6257 23.7768 14.2446 22.5164 14.2446C21.256 14.2446 20.025 14.6257 18.9851 15.3379C17.9451 16.05 17.1448 17.06 16.6891 18.2352C16.2335 19.4104 16.1438 20.6958 16.4318 21.9229C16.7198 23.15 17.3722 24.2613 18.3031 25.111C16.5968 25.8444 15.1129 27.0131 14 28.5C13.9015 28.6314 13.8298 28.7808 13.7891 28.9398C13.7484 29.0988 13.7393 29.2643 13.7626 29.4268C13.7858 29.5893 13.8408 29.7457 13.9244 29.8869C14.008 30.0282 14.1187 30.1516 14.25 30.25Z" fill="#4379EE" style="fill:#4379EE;fill:color(display-p3 0.2627 0.4752 0.9333);fill-opacity:1;"/>
</svg>
