<svg width="38" height="37" viewBox="0 0 38 37" fill="none" xmlns="http://www.w3.org/2000/svg">
<rect x="1" y="0.5" width="36" height="36" rx="18" stroke="white" style="stroke:white;stroke-opacity:1;"/>
<path d="M20.75 18.5C20.75 18.8461 20.6474 19.1845 20.4551 19.4722C20.2628 19.76 19.9895 19.9843 19.6697 20.1168C19.3499 20.2492 18.9981 20.2839 18.6586 20.2164C18.3191 20.1489 18.0073 19.9822 17.7626 19.7374C17.5178 19.4927 17.3512 19.1809 17.2836 18.8414C17.2161 18.5019 17.2508 18.1501 17.3832 17.8303C17.5157 17.5105 17.74 17.2372 18.0278 17.0449C18.3155 16.8526 18.6539 16.75 19 16.75C19.4641 16.75 19.9092 16.9344 20.2374 17.2626C20.5656 17.5908 20.75 18.0359 20.75 18.5ZM19 15.25C19.3461 15.25 19.6845 15.1474 19.9722 14.9551C20.26 14.7628 20.4843 14.4895 20.6168 14.1697C20.7492 13.8499 20.7839 13.4981 20.7164 13.1586C20.6489 12.8191 20.4822 12.5073 20.2374 12.2626C19.9927 12.0178 19.6809 11.8512 19.3414 11.7836C19.0019 11.7161 18.6501 11.7508 18.3303 11.8832C18.0105 12.0157 17.7372 12.24 17.5449 12.5278C17.3526 12.8155 17.25 13.1539 17.25 13.5C17.25 13.9641 17.4344 14.4092 17.7626 14.7374C18.0908 15.0656 18.5359 15.25 19 15.25ZM19 21.75C18.6539 21.75 18.3155 21.8526 18.0278 22.0449C17.74 22.2372 17.5157 22.5105 17.3832 22.8303C17.2508 23.1501 17.2161 23.5019 17.2836 23.8414C17.3512 24.1809 17.5178 24.4927 17.7626 24.7374C18.0073 24.9822 18.3191 25.1489 18.6586 25.2164C18.9981 25.2839 19.3499 25.2492 19.6697 25.1168C19.9895 24.9843 20.2628 24.76 20.4551 24.4722C20.6474 24.1845 20.75 23.8461 20.75 23.5C20.75 23.0359 20.5656 22.5908 20.2374 22.2626C19.9092 21.9344 19.4641 21.75 19 21.75Z" fill="white" style="fill:white;fill-opacity:1;"/>
</svg>
