<svg width="91" height="91" viewBox="0 0 91 91" fill="none" xmlns="http://www.w3.org/2000/svg">
<path d="M75.6817 44.6069L36.3067 86.7944C35.8895 87.2397 35.3387 87.5372 34.7375 87.642C34.1363 87.7469 33.5174 87.6533 32.974 87.3755C32.4307 87.0976 31.9924 86.6506 31.7254 86.1019C31.4584 85.5532 31.3771 84.9325 31.4938 84.3335L36.6477 58.5534L16.3872 50.9456C15.9521 50.7828 15.564 50.5148 15.2578 50.1655C14.9515 49.8162 14.7365 49.3964 14.6321 48.9438C14.5276 48.4911 14.5369 48.0196 14.6591 47.5714C14.7814 47.1232 15.0127 46.7122 15.3325 46.3753L54.7075 4.18777C55.1248 3.74246 55.6756 3.44496 56.2767 3.34014C56.8779 3.23532 57.4969 3.32889 58.0402 3.60671C58.5836 3.88453 59.0218 4.33154 59.2888 4.88028C59.5558 5.42902 59.6371 6.04972 59.5204 6.6487L54.3524 32.4569L74.613 40.0542C75.0449 40.218 75.4298 40.4858 75.7337 40.8337C76.0376 41.1816 76.2511 41.599 76.3553 42.0491C76.4596 42.4991 76.4514 42.9679 76.3315 43.414C76.2115 43.8601 75.9835 44.2698 75.6677 44.6069H75.6817Z" fill="#979797" style="fill:#979797;fill-opacity:1;"/>
</svg>
