<svg width="32" height="32" viewBox="0 0 32 32" fill="none" xmlns="http://www.w3.org/2000/svg">
<path d="M5 13V19C5 21.9174 6.15892 24.7153 8.22182 26.7782C10.2847 28.8411 13.0826 30 16 30C18.9174 30 21.7153 28.8411 23.7782 26.7782C25.8411 24.7153 27 21.9174 27 19V8C27 7.46957 26.7893 6.96086 26.4142 6.58579C26.0391 6.21071 25.5304 6 25 6C24.4696 6 23.9609 6.21071 23.5858 6.58579C23.2107 6.96086 23 7.46957 23 8V15C23 15.2652 22.8946 15.5196 22.7071 15.7071C22.5196 15.8946 22.2652 16 22 16C21.7348 16 21.4804 15.8946 21.2929 15.7071C21.1054 15.5196 21 15.2652 21 15V4C21 3.46957 20.7893 2.96086 20.4142 2.58579C20.0391 2.21071 19.5304 2 19 2C18.4696 2 17.9609 2.21071 17.5858 2.58579C17.2107 2.96086 17 3.46957 17 4V14C17 14.2652 16.8946 14.5196 16.7071 14.7071C16.5196 14.8946 16.2652 15 16 15C15.7348 15 15.4804 14.8946 15.2929 14.7071C15.1054 14.5196 15 14.2652 15 14V6C15 5.46957 14.7893 4.96086 14.4142 4.58579C14.0391 4.21071 13.5304 4 13 4C12.4696 4 11.9609 4.21071 11.5858 4.58579C11.2107 4.96086 11 5.46957 11 6V16.0837C12.3973 16.3219 13.6654 17.0463 14.5803 18.1289C15.4952 19.2115 15.998 20.5826 16 22C16 22.2652 15.8946 22.5196 15.7071 22.7071C15.5196 22.8946 15.2652 23 15 23C14.7348 23 14.4804 22.8946 14.2929 22.7071C14.1054 22.5196 14 22.2652 14 22C14 20.9391 13.5786 19.9217 12.8284 19.1716C12.0783 18.4214 11.0609 18 10 18C9.73478 18 9.48043 17.8946 9.29289 17.7071C9.10536 17.5196 9 17.2652 9 17V13C9 12.4696 8.78929 11.9609 8.41421 11.5858C8.03914 11.2107 7.53043 11 7 11C6.46957 11 5.96086 11.2107 5.58579 11.5858C5.21071 11.9609 5 12.4696 5 13Z" fill="white" style="fill:white;fill-opacity:1;"/>
</svg>
