<svg width="60" height="61" viewBox="0 0 60 61" fill="none" xmlns="http://www.w3.org/2000/svg">
<rect y="0.5" width="60" height="60" rx="23" fill="#00B624" fill-opacity="0.1" style="fill:#00B624;fill:color(display-p3 0.0000 0.7137 0.1427);fill-opacity:0.1;"/>
<path d="M16.25 26.75V34.25C16.25 37.8967 17.6987 41.3941 20.2773 43.9727C22.8559 46.5513 26.3533 48 30 48C33.6467 48 37.1441 46.5513 39.7227 43.9727C42.3013 41.3941 43.75 37.8967 43.75 34.25V20.5C43.75 19.837 43.4866 19.2011 43.0178 18.7322C42.5489 18.2634 41.913 18 41.25 18C40.587 18 39.9511 18.2634 39.4822 18.7322C39.0134 19.2011 38.75 19.837 38.75 20.5V29.25C38.75 29.5815 38.6183 29.8995 38.3839 30.1339C38.1495 30.3683 37.8315 30.5 37.5 30.5C37.1685 30.5 36.8505 30.3683 36.6161 30.1339C36.3817 29.8995 36.25 29.5815 36.25 29.25V15.5C36.25 14.837 35.9866 14.2011 35.5178 13.7322C35.0489 13.2634 34.413 13 33.75 13C33.087 13 32.4511 13.2634 31.9822 13.7322C31.5134 14.2011 31.25 14.837 31.25 15.5V28C31.25 28.3315 31.1183 28.6495 30.8839 28.8839C30.6495 29.1183 30.3315 29.25 30 29.25C29.6685 29.25 29.3505 29.1183 29.1161 28.8839C28.8817 28.6495 28.75 28.3315 28.75 28V18C28.75 17.337 28.4866 16.7011 28.0178 16.2322C27.5489 15.7634 26.913 15.5 26.25 15.5C25.587 15.5 24.9511 15.7634 24.4822 16.2322C24.0134 16.7011 23.75 17.337 23.75 18V30.6047C25.4966 30.9024 27.0817 31.8079 28.2253 33.1611C29.369 34.5144 29.9976 36.2282 30 38C30 38.3315 29.8683 38.6495 29.6339 38.8839C29.3995 39.1183 29.0815 39.25 28.75 39.25C28.4185 39.25 28.1005 39.1183 27.8661 38.8839C27.6317 38.6495 27.5 38.3315 27.5 38C27.5 36.6739 26.9732 35.4021 26.0355 34.4645C25.0979 33.5268 23.8261 33 22.5 33C22.1685 33 21.8505 32.8683 21.6161 32.6339C21.3817 32.3995 21.25 32.0815 21.25 31.75V26.75C21.25 26.087 20.9866 25.4511 20.5178 24.9822C20.0489 24.5134 19.413 24.25 18.75 24.25C18.087 24.25 17.4511 24.5134 16.9822 24.9822C16.5134 25.4511 16.25 26.087 16.25 26.75Z" fill="#00B624" style="fill:#00B624;fill:color(display-p3 0.0000 0.7137 0.1427);fill-opacity:1;"/>
</svg>
