<svg width="24" height="24" viewBox="0 0 24 24" fill="none" xmlns="http://www.w3.org/2000/svg">
<path d="M17.625 8.25005C17.2357 8.2495 16.8513 8.33633 16.5 8.50412V5.62505C16.4999 5.17016 16.3816 4.72309 16.1566 4.3277C15.9317 3.93231 15.6078 3.60216 15.2169 3.36962C14.8259 3.13708 14.3812 3.01013 13.9264 3.00122C13.4716 2.99232 13.0223 3.10175 12.6225 3.3188C12.43 2.72404 12.0316 2.21748 11.499 1.89027C10.9663 1.56306 10.3344 1.43669 9.71687 1.53388C9.09934 1.63108 8.53677 1.94546 8.13038 2.42047C7.72399 2.89548 7.50045 3.49992 7.5 4.12505V4.75412C7.14873 4.58633 6.76429 4.4995 6.375 4.50005C5.67881 4.50005 5.01113 4.77662 4.51884 5.2689C4.02656 5.76118 3.75 6.42886 3.75 7.12505V14.2501C3.75 16.4381 4.61919 18.5365 6.16637 20.0837C7.71354 21.6309 9.81196 22.5001 12 22.5001C14.188 22.5001 16.2865 21.6309 17.8336 20.0837C19.3808 18.5365 20.25 16.4381 20.25 14.2501V10.8751C20.25 10.1789 19.9734 9.51118 19.4812 9.0189C18.9889 8.52662 18.3212 8.25005 17.625 8.25005ZM18.75 14.2501C18.75 16.0403 18.0388 17.7572 16.773 19.023C15.5071 20.2889 13.7902 21.0001 12 21.0001C10.2098 21.0001 8.4929 20.2889 7.22703 19.023C5.96116 17.7572 5.25 16.0403 5.25 14.2501V7.12505C5.25 6.82669 5.36853 6.54054 5.5795 6.32956C5.79048 6.11858 6.07663 6.00005 6.375 6.00005C6.67337 6.00005 6.95952 6.11858 7.1705 6.32956C7.38147 6.54054 7.5 6.82669 7.5 7.12505V11.2501C7.5 11.449 7.57902 11.6397 7.71967 11.7804C7.86032 11.921 8.05109 12.0001 8.25 12.0001C8.44891 12.0001 8.63968 11.921 8.78033 11.7804C8.92098 11.6397 9 11.449 9 11.2501V4.12505C9 3.82668 9.11853 3.54054 9.3295 3.32956C9.54048 3.11858 9.82663 3.00005 10.125 3.00005C10.4234 3.00005 10.7095 3.11858 10.9205 3.32956C11.1315 3.54054 11.25 3.82668 11.25 4.12505V10.5001C11.25 10.699 11.329 10.8897 11.4697 11.0304C11.6103 11.171 11.8011 11.2501 12 11.2501C12.1989 11.2501 12.3897 11.171 12.5303 11.0304C12.671 10.8897 12.75 10.699 12.75 10.5001V5.62505C12.75 5.32669 12.8685 5.04054 13.0795 4.82956C13.2905 4.61858 13.5766 4.50005 13.875 4.50005C14.1734 4.50005 14.4595 4.61858 14.6705 4.82956C14.8815 5.04054 15 5.32669 15 5.62505V12.0629C13.9521 12.2415 13.001 12.7848 12.3148 13.5967C11.6286 14.4087 11.2515 15.437 11.25 16.5001C11.25 16.699 11.329 16.8897 11.4697 17.0304C11.6103 17.171 11.8011 17.2501 12 17.2501C12.1989 17.2501 12.3897 17.171 12.5303 17.0304C12.671 16.8897 12.75 16.699 12.75 16.5001C12.75 15.7044 13.0661 14.9413 13.6287 14.3787C14.1913 13.8161 14.9544 13.5001 15.75 13.5001C15.9489 13.5001 16.1397 13.421 16.2803 13.2804C16.421 13.1397 16.5 12.949 16.5 12.7501V10.8751C16.5 10.5767 16.6185 10.2905 16.8295 10.0796C17.0405 9.86858 17.3266 9.75005 17.625 9.75005C17.9234 9.75005 18.2095 9.86858 18.4205 10.0796C18.6315 10.2905 18.75 10.5767 18.75 10.8751V14.2501Z" fill="white" style="fill:white;fill-opacity:1;"/>
</svg>
