<svg width="21" height="21" viewBox="0 0 21 21" fill="none" xmlns="http://www.w3.org/2000/svg">
<path d="M10.3335 2.375C8.72653 2.375 7.15564 2.85152 5.81949 3.74431C4.48334 4.6371 3.44194 5.90605 2.82698 7.3907C2.21202 8.87535 2.05111 10.509 2.36462 12.0851C2.67812 13.6612 3.45196 15.1089 4.58826 16.2452C5.72456 17.3815 7.1723 18.1554 8.74839 18.4689C10.3245 18.7824 11.9582 18.6215 13.4428 18.0065C14.9275 17.3916 16.1964 16.3502 17.0892 15.014C17.982 13.6779 18.4585 12.107 18.4585 10.5C18.4562 8.34581 17.5995 6.28051 16.0762 4.75727C14.553 3.23403 12.4877 2.37727 10.3335 2.375ZM10.3335 15.5C10.1481 15.5 9.96682 15.445 9.81265 15.342C9.65848 15.239 9.53832 15.0926 9.46736 14.9213C9.39641 14.75 9.37784 14.5615 9.41401 14.3796C9.45019 14.1977 9.53948 14.0307 9.67059 13.8996C9.8017 13.7685 9.96875 13.6792 10.1506 13.643C10.3325 13.6068 10.521 13.6254 10.6923 13.6964C10.8636 13.7673 11.01 13.8875 11.113 14.0417C11.216 14.1958 11.271 14.3771 11.271 14.5625C11.271 14.8111 11.1722 15.0496 10.9964 15.2254C10.8206 15.4012 10.5821 15.5 10.3335 15.5ZM10.9585 11.6938V11.75C10.9585 11.9158 10.8927 12.0747 10.7754 12.1919C10.6582 12.3092 10.4993 12.375 10.3335 12.375C10.1677 12.375 10.0088 12.3092 9.89156 12.1919C9.77435 12.0747 9.7085 11.9158 9.7085 11.75V11.125C9.7085 10.9592 9.77435 10.8003 9.89156 10.6831C10.0088 10.5658 10.1677 10.5 10.3335 10.5C11.3671 10.5 12.2085 9.79688 12.2085 8.9375C12.2085 8.07812 11.3671 7.375 10.3335 7.375C9.29991 7.375 8.4585 8.07812 8.4585 8.9375V9.25C8.4585 9.41576 8.39265 9.57473 8.27544 9.69194C8.15823 9.80915 7.99926 9.875 7.8335 9.875C7.66774 9.875 7.50877 9.80915 7.39156 9.69194C7.27435 9.57473 7.2085 9.41576 7.2085 9.25V8.9375C7.2085 7.38672 8.61006 6.125 10.3335 6.125C12.0569 6.125 13.4585 7.38672 13.4585 8.9375C13.4585 10.2953 12.3835 11.432 10.9585 11.6938Z" fill="#979797" style="fill:#979797;fill:color(display-p3 0.5922 0.5922 0.5922);fill-opacity:1;"/>
</svg>
