<svg width="24" height="24" viewBox="0 0 24 24" fill="none" xmlns="http://www.w3.org/2000/svg">
<g opacity="0.5">
<rect width="24" height="24" rx="6" fill="#2E2E2E" style="fill:#2E2E2E;fill:color(display-p3 0.1806 0.1806 0.1806);fill-opacity:1;"/>
<path d="M15 13.7502C14.3303 13.7491 13.6834 13.9937 13.1819 14.4377L10.6313 12.8002C10.7896 12.2786 10.7896 11.7218 10.6313 11.2002L13.1819 9.56268C13.6784 9.99899 14.3158 10.2411 14.9768 10.2443C15.6377 10.2476 16.2775 10.0118 16.7783 9.58037C17.279 9.14897 17.6069 8.55107 17.7014 7.89692C17.796 7.24278 17.6509 6.5765 17.2928 6.02095C16.9347 5.4654 16.3879 5.05804 15.7531 4.87399C15.1183 4.68993 14.4384 4.74159 13.8387 5.01944C13.239 5.2973 12.7599 5.7826 12.4899 6.38588C12.2199 6.98915 12.1771 7.6697 12.3694 8.30205L9.81815 9.93768C9.4214 9.58705 8.93188 9.35842 8.40836 9.27923C7.88485 9.20004 7.3496 9.27367 6.86691 9.49126C6.38421 9.70886 5.9746 10.0612 5.68726 10.5059C5.39992 10.9506 5.24707 11.4688 5.24707 11.9983C5.24707 12.5278 5.39992 13.046 5.68726 13.4907C5.9746 13.9354 6.38421 14.2877 6.86691 14.5053C7.3496 14.7229 7.88485 14.7966 8.40836 14.7174C8.93188 14.6382 9.4214 14.4095 9.81815 14.0589L12.3688 15.7002C12.2005 16.2537 12.211 16.8461 12.3989 17.3933C12.5868 17.9404 12.9424 18.4144 13.4152 18.7477C13.888 19.0811 14.4539 19.2568 15.0324 19.25C15.6109 19.2431 16.1724 19.054 16.6372 18.7096C17.102 18.3651 17.4463 17.8829 17.6212 17.3314C17.7961 16.78 17.7926 16.1875 17.6112 15.6381C17.4299 15.0888 17.0799 14.6106 16.6111 14.2716C16.1423 13.9327 15.5785 13.7502 15 13.7502ZM15 6.25018C15.2472 6.25018 15.4889 6.32349 15.6945 6.46084C15.9 6.59819 16.0603 6.79341 16.1549 7.02182C16.2495 7.25023 16.2742 7.50156 16.226 7.74404C16.1778 7.98652 16.0587 8.20924 15.8839 8.38406C15.7091 8.55888 15.4864 8.67793 15.2439 8.72616C15.0014 8.77439 14.7501 8.74963 14.5217 8.65503C14.2933 8.56042 14.098 8.4002 13.9607 8.19464C13.8233 7.98908 13.75 7.7474 13.75 7.50018C13.75 7.16866 13.8817 6.85071 14.1161 6.61629C14.3506 6.38187 14.6685 6.25018 15 6.25018ZM8.00002 13.2502C7.7528 13.2502 7.51112 13.1769 7.30556 13.0395C7.1 12.9022 6.93978 12.7069 6.84517 12.4785C6.75056 12.2501 6.72581 11.9988 6.77404 11.7563C6.82227 11.5138 6.94132 11.2911 7.11614 11.1163C7.29096 10.9415 7.51368 10.8224 7.75616 10.7742C7.99864 10.726 8.24997 10.7507 8.47838 10.8453C8.70679 10.9399 8.90201 11.1002 9.03936 11.3057C9.17671 11.5113 9.25002 11.7529 9.25002 12.0002C9.25002 12.3317 9.11833 12.6496 8.88391 12.8841C8.64949 13.1185 8.33154 13.2502 8.00002 13.2502ZM15 17.7502C14.7528 17.7502 14.5111 17.6769 14.3056 17.5395C14.1 17.4022 13.9398 17.2069 13.8452 16.9785C13.7506 16.7501 13.7258 16.4988 13.774 16.2563C13.8223 16.0138 13.9413 15.7911 14.1161 15.6163C14.291 15.4415 14.5137 15.3224 14.7562 15.2742C14.9986 15.226 15.25 15.2507 15.4784 15.3453C15.7068 15.4399 15.902 15.6002 16.0394 15.8057C16.1767 16.0113 16.25 16.2529 16.25 16.5002C16.25 16.8317 16.1183 17.1496 15.8839 17.3841C15.6495 17.6185 15.3315 17.7502 15 17.7502Z" fill="white" style="fill:white;fill-opacity:1;"/>
</g>
</svg>
