<svg width="16" height="17" viewBox="0 0 16 17" fill="none" xmlns="http://www.w3.org/2000/svg">
<path d="M11.3538 8.85366L6.35375 13.8537C6.28382 13.9237 6.1947 13.9713 6.09765 13.9907C6.00061 14.01 5.90002 14.0001 5.8086 13.9622C5.71719 13.9243 5.63908 13.8602 5.58414 13.7779C5.5292 13.6956 5.49992 13.5989 5.5 13.4999V3.49991C5.49992 3.40096 5.5292 3.30421 5.58414 3.22191C5.63908 3.13962 5.71719 3.07547 5.8086 3.03759C5.90002 2.99972 6.00061 2.98982 6.09765 3.00914C6.1947 3.02847 6.28382 3.07615 6.35375 3.14616L11.3538 8.14616C11.4002 8.19259 11.4371 8.24774 11.4623 8.30844C11.4874 8.36913 11.5004 8.4342 11.5004 8.49991C11.5004 8.56561 11.4874 8.63068 11.4623 8.69138C11.4371 8.75207 11.4002 8.80722 11.3538 8.85366Z" fill="#202224" style="fill:#202224;fill:color(display-p3 0.1255 0.1333 0.1412);fill-opacity:1;"/>
</svg>
