<svg width="16" height="17" viewBox="0 0 16 17" fill="none" xmlns="http://www.w3.org/2000/svg">
<path d="M13.5 7.49991V13.4999C13.5 13.7651 13.3946 14.0195 13.2071 14.207C13.0196 14.3945 12.7652 14.4999 12.5 14.4999H3.5C3.23478 14.4999 2.98043 14.3945 2.79289 14.207C2.60536 14.0195 2.5 13.7651 2.5 13.4999V7.49991C2.5 7.23469 2.60536 6.98033 2.79289 6.7928C2.98043 6.60526 3.23478 6.49991 3.5 6.49991H7.5V9.4999C7.5 9.63251 7.55268 9.75969 7.64645 9.85346C7.74021 9.94723 7.86739 9.9999 8 9.9999C8.13261 9.9999 8.25979 9.94723 8.35355 9.85346C8.44732 9.75969 8.5 9.63251 8.5 9.4999V6.49991H12.5C12.7652 6.49991 13.0196 6.60526 13.2071 6.7928C13.3946 6.98033 13.5 7.23469 13.5 7.49991ZM8.5 3.20678L10.1462 4.85366C10.2401 4.94748 10.3673 5.00018 10.5 5.00018C10.6327 5.00018 10.7599 4.94748 10.8538 4.85366C10.9476 4.75984 11.0003 4.63259 11.0003 4.49991C11.0003 4.36722 10.9476 4.23998 10.8538 4.14616L8.35375 1.64616C8.30731 1.59967 8.25217 1.56279 8.19147 1.53763C8.13077 1.51246 8.06571 1.49951 8 1.49951C7.93429 1.49951 7.86923 1.51246 7.80853 1.53763C7.74783 1.56279 7.69269 1.59967 7.64625 1.64616L5.14625 4.14616C5.05243 4.23998 4.99972 4.36722 4.99972 4.49991C4.99972 4.63259 5.05243 4.75983 5.14625 4.85365C5.24007 4.94748 5.36732 5.00018 5.5 5.00018C5.63268 5.00018 5.75993 4.94748 5.85375 4.85366L7.5 3.20678V6.49991H8.5V3.20678Z" fill="white" style="fill:white;fill-opacity:1;"/>
</svg>
