<svg width="60" height="61" viewBox="0 0 60 61" fill="none" xmlns="http://www.w3.org/2000/svg">
<rect y="0.5" width="60" height="60" rx="23" fill="#8700E2" fill-opacity="0.1" style="fill:#8700E2;fill:color(display-p3 0.5294 0.0000 0.8863);fill-opacity:0.1;"/>
<path d="M43.75 16.75H16.25C15.587 16.75 14.9511 17.0134 14.4822 17.4822C14.0134 17.9511 13.75 18.587 13.75 19.25V41.75C13.75 42.413 14.0134 43.0489 14.4822 43.5178C14.9511 43.9866 15.587 44.25 16.25 44.25H43.75C44.413 44.25 45.0489 43.9866 45.5178 43.5178C45.9866 43.0489 46.25 42.413 46.25 41.75V19.25C46.25 18.587 45.9866 17.9511 45.5178 17.4822C45.0489 17.0134 44.413 16.75 43.75 16.75ZM42.1344 23.8844L27.1344 38.8844C27.0183 39.0006 26.8804 39.0928 26.7287 39.1557C26.5769 39.2186 26.4143 39.251 26.25 39.251C26.0857 39.251 25.9231 39.2186 25.7713 39.1557C25.6196 39.0928 25.4817 39.0006 25.3656 38.8844L19.1156 32.6344C18.8811 32.3998 18.7493 32.0817 18.7493 31.75C18.7493 31.4183 18.8811 31.1002 19.1156 30.8656C19.3502 30.6311 19.6683 30.4993 20 30.4993C20.3317 30.4993 20.6498 30.6311 20.8844 30.8656L26.25 36.2328L40.3656 22.1156C40.6002 21.8811 40.9183 21.7493 41.25 21.7493C41.5817 21.7493 41.8998 21.8811 42.1344 22.1156C42.3689 22.3502 42.5007 22.6683 42.5007 23C42.5007 23.3317 42.3689 23.6498 42.1344 23.8844Z" fill="#8700E2" style="fill:#8700E2;fill:color(display-p3 0.5312 0.0000 0.8853);fill-opacity:1;"/>
</svg>
