<svg width="20" height="20" viewBox="0 0 20 20" fill="none" xmlns="http://www.w3.org/2000/svg">
<path d="M18.5001 14.6946L11.6681 2.82974C11.4973 2.53906 11.2536 2.29803 10.961 2.13057C10.6685 1.9631 10.3372 1.875 10.0001 1.875C9.66299 1.875 9.33174 1.9631 9.03916 2.13057C8.74659 2.29803 8.50286 2.53906 8.33214 2.82974L1.50011 14.6946C1.33584 14.9757 1.24927 15.2955 1.24927 15.6211C1.24927 15.9468 1.33584 16.2665 1.50011 16.5477C1.66865 16.8401 1.91196 17.0825 2.20508 17.2498C2.49819 17.4172 2.83056 17.5036 3.16807 17.5001H16.8321C17.1694 17.5033 17.5014 17.4168 17.7942 17.2494C18.0871 17.0821 18.3301 16.8399 18.4985 16.5477C18.663 16.2667 18.7499 15.947 18.7502 15.6214C18.7504 15.2957 18.6641 14.9759 18.5001 14.6946ZM9.37511 8.12505C9.37511 7.95929 9.44095 7.80032 9.55816 7.68311C9.67537 7.5659 9.83434 7.50005 10.0001 7.50005C10.1659 7.50005 10.3248 7.5659 10.442 7.68311C10.5593 7.80032 10.6251 7.95929 10.6251 8.12505V11.2501C10.6251 11.4158 10.5593 11.5748 10.442 11.692C10.3248 11.8092 10.1659 11.8751 10.0001 11.8751C9.83434 11.8751 9.67537 11.8092 9.55816 11.692C9.44095 11.5748 9.37511 11.4158 9.37511 11.2501V8.12505ZM10.0001 15.0001C9.81469 15.0001 9.63343 14.9451 9.47926 14.8421C9.32509 14.739 9.20493 14.5926 9.13397 14.4213C9.06301 14.25 9.04445 14.0615 9.08062 13.8797C9.11679 13.6978 9.20608 13.5308 9.33719 13.3996C9.4683 13.2685 9.63535 13.1792 9.81721 13.1431C9.99907 13.1069 10.1876 13.1255 10.3589 13.1964C10.5302 13.2674 10.6766 13.3875 10.7796 13.5417C10.8826 13.6959 10.9376 13.8771 10.9376 14.0626C10.9376 14.3112 10.8388 14.5496 10.663 14.7255C10.4872 14.9013 10.2487 15.0001 10.0001 15.0001Z" fill="white" style="fill:white;fill-opacity:1;"/>
</svg>
