<svg width="14" height="10" viewBox="0 0 14 10" fill="none" xmlns="http://www.w3.org/2000/svg">
<path fill-rule="evenodd" clip-rule="evenodd" d="M1.22354 0H12.7762C13.2679 0 13.6666 0.426421 13.6666 0.954238V9.04576C13.6666 9.57262 13.2675 10 12.7762 10H1.22354C0.731898 10 0.333252 9.57355 0.333252 9.04576V0.954238C0.333252 0.427365 0.732338 0 1.22354 0ZM7.23669 5.87913L11.2187 3.41587C11.3782 3.31729 11.4337 3.10011 11.3409 2.92805C11.2488 2.75738 11.0459 2.69787 10.8853 2.79738L7.01597 5.19089L3.14663 2.79738C2.98604 2.69787 2.78313 2.75738 2.69101 2.92805C2.59833 3.10011 2.65367 3.31729 2.81329 3.41587L6.79527 5.87913C6.85692 5.9354 6.9359 5.96518 7.01597 5.96378C7.09605 5.96518 7.17506 5.9354 7.23669 5.87913Z" fill="#202224" style="fill:#202224;fill:color(display-p3 0.1255 0.1333 0.1412);fill-opacity:1;"/>
</svg>
