<svg width="14" height="14" viewBox="0 0 14 14" fill="none" xmlns="http://www.w3.org/2000/svg">
<path fill-rule="evenodd" clip-rule="evenodd" d="M11.1386 8.49583L12.4592 7.17557L12.4592 7.17559C13.9164 5.71877 13.8318 3.27341 12.2771 1.719C10.7288 0.164615 8.28286 0.0865875 6.82571 1.54341L5.50516 2.86367C5.14088 3.22786 5.16035 3.83918 5.55069 4.22943C5.94099 4.61964 6.55249 4.63916 6.91678 4.27497L8.23731 2.95471C8.96589 2.21978 10.1824 2.25879 10.963 3.03924C11.7371 3.81319 11.7762 5.03587 11.0476 5.76429L9.72696 7.08453C9.36268 7.44872 9.38222 8.06011 9.77249 8.45031C10.1629 8.84057 10.7744 8.86003 11.1386 8.49583ZM5.02383 8.97694C4.63354 8.58669 4.614 7.97537 4.97828 7.61118L7.61943 4.9707C7.98373 4.60649 8.59519 4.62596 8.98552 5.01622C9.3758 5.40641 9.39536 6.01778 9.03106 6.382L6.38997 9.02246C6.01918 9.38669 5.40766 9.36714 5.02383 8.97694ZM4.27583 6.91524L2.95528 8.23546C2.2267 8.96387 2.26572 10.1866 3.03983 10.9605C3.82046 11.7409 5.03691 11.78 5.76549 11.0451L7.08604 9.72479C7.45033 9.36059 8.06185 9.38012 8.45213 9.77032C8.84247 10.1606 8.86197 10.7719 8.49767 11.1362L7.17712 12.4564C5.71996 13.9132 3.27403 13.8351 1.71928 12.2808C0.164538 10.7264 0.0864923 8.28098 1.54365 6.82415L2.8642 5.5039C3.22849 5.13969 3.83996 5.15916 4.23029 5.54942C4.62057 5.93962 4.64012 6.55098 4.27581 6.9152L4.27583 6.91524Z" fill="#202224" style="fill:#202224;fill:color(display-p3 0.1255 0.1333 0.1412);fill-opacity:1;"/>
</svg>
