<svg width="16" height="17" viewBox="0 0 16 17" fill="none" xmlns="http://www.w3.org/2000/svg">
<g opacity="0.5">
<path d="M11.25 4.5H2.5C2.30109 4.5 2.11032 4.57902 1.96967 4.71967C1.82902 4.86032 1.75 5.05109 1.75 5.25V14C1.75 14.1989 1.82902 14.3897 1.96967 14.5303C2.11032 14.671 2.30109 14.75 2.5 14.75H11.25C11.4489 14.75 11.6397 14.671 11.7803 14.5303C11.921 14.3897 12 14.1989 12 14V5.25C12 5.05109 11.921 4.86032 11.7803 4.71967C11.6397 4.57902 11.4489 4.5 11.25 4.5ZM10.5 13.25H3.25V6H10.5V13.25ZM14.25 3V11.75C14.25 11.9489 14.171 12.1397 14.0303 12.2803C13.8897 12.421 13.6989 12.5 13.5 12.5C13.3011 12.5 13.1103 12.421 12.9697 12.2803C12.829 12.1397 12.75 11.9489 12.75 11.75V3.75H4.75C4.55109 3.75 4.36032 3.67098 4.21967 3.53033C4.07902 3.38968 4 3.19891 4 3C4 2.80109 4.07902 2.61032 4.21967 2.46967C4.36032 2.32902 4.55109 2.25 4.75 2.25H13.5C13.6989 2.25 13.8897 2.32902 14.0303 2.46967C14.171 2.61032 14.25 2.80109 14.25 3Z" fill="white" style="fill:white;fill-opacity:1;"/>
</g>
</svg>
