<svg width="28" height="28" viewBox="0 0 28 28" fill="none" xmlns="http://www.w3.org/2000/svg">
<path d="M1 14C1 6.8203 6.8203 1 14 1C21.1797 1 27 6.8203 27 14C27 21.1797 21.1797 27 14 27C6.8203 27 1 21.1797 1 14Z" fill="#202224" style="fill:#202224;fill:color(display-p3 0.1255 0.1333 0.1412);fill-opacity:1;"/>
<path d="M1 14C1 6.8203 6.8203 1 14 1C21.1797 1 27 6.8203 27 14C27 21.1797 21.1797 27 14 27C6.8203 27 1 21.1797 1 14Z" stroke="white" style="stroke:white;stroke-opacity:1;" stroke-width="2"/>
<path fill-rule="evenodd" clip-rule="evenodd" d="M7.99309 18.5994C7.60256 18.2089 7.60256 17.5758 7.99309 17.1852L11.1751 14.0032L7.99312 10.8213C7.60259 10.4307 7.60259 9.79758 7.99312 9.40706L9.40733 7.99284C9.79786 7.60232 10.431 7.60232 10.8215 7.99284L14.0035 11.1748L17.1855 7.99284C17.576 7.60232 18.2092 7.60232 18.5997 7.99284L20.0139 9.40706C20.4044 9.79758 20.4044 10.4307 20.0139 10.8213L16.8319 14.0032L20.0139 17.1852C20.4045 17.5758 20.4045 18.2089 20.0139 18.5994L18.5997 20.0137C18.2092 20.4042 17.576 20.4042 17.1855 20.0137L14.0035 16.8317L10.8215 20.0137C10.431 20.4042 9.79783 20.4042 9.4073 20.0137L7.99309 18.5994Z" fill="white" style="fill:white;fill-opacity:1;"/>
</svg>
