<svg width="16" height="17" viewBox="0 0 16 17" fill="none" xmlns="http://www.w3.org/2000/svg">
<g opacity="0.5">
<path d="M3.90964 8.14222C3.90965 8.06407 3.9251 7.98671 3.9551 7.91455C3.98509 7.8424 4.02904 7.7769 4.08443 7.72177C4.13982 7.66665 4.20554 7.62301 4.27784 7.59337C4.35014 7.56372 4.42758 7.54865 4.50572 7.54901L5.49401 7.55223C5.65157 7.55223 5.80269 7.61483 5.91411 7.72625C6.02553 7.83767 6.08813 7.98878 6.08813 8.14636V11.8832C6.19939 11.8502 6.34228 11.815 6.49864 11.7782C6.60724 11.7527 6.70404 11.6912 6.77332 11.6038C6.84259 11.5163 6.88028 11.408 6.88026 11.2965V6.66105C6.88026 6.50346 6.94285 6.35233 7.05426 6.24089C7.16568 6.12946 7.3168 6.06684 7.47438 6.06681H8.46463C8.6222 6.06684 8.77332 6.12946 8.88474 6.24089C8.99615 6.35233 9.05875 6.50346 9.05875 6.66105V10.9632C9.05875 10.9632 9.30669 10.8628 9.54818 10.7609C9.63788 10.723 9.71444 10.6594 9.76829 10.5783C9.82215 10.4971 9.8509 10.4019 9.85099 10.3045V5.17574C9.85099 5.01819 9.91357 4.86708 10.025 4.75567C10.1364 4.64425 10.2874 4.58165 10.445 4.58162H11.4352C11.5928 4.58162 11.7439 4.6442 11.8554 4.75563C11.9668 4.86705 12.0294 5.01817 12.0294 5.17574V9.39915C12.8879 8.77695 13.7579 8.02866 14.4483 7.12885C14.5485 6.99824 14.6148 6.84487 14.6413 6.68243C14.6677 6.51999 14.6536 6.35351 14.6001 6.19785C14.2805 5.27834 13.7725 4.43566 13.1085 3.72375C12.4446 3.01185 11.6393 2.44638 10.7443 2.06354C9.84928 1.68071 8.88418 1.48893 7.91078 1.50049C6.93738 1.51205 5.97712 1.72669 5.09145 2.13068C4.20576 2.53466 3.41416 3.11909 2.76731 3.84657C2.12046 4.57403 1.6326 5.42854 1.33495 6.35539C1.0373 7.28223 0.936417 8.26101 1.03876 9.22908C1.14109 10.1972 1.4444 11.1332 1.92926 11.9773C2.01373 12.1229 2.13799 12.2414 2.28746 12.3189C2.43692 12.3963 2.60538 12.4295 2.77305 12.4145C2.96036 12.3981 3.19356 12.3747 3.47084 12.3422C3.59154 12.3285 3.70298 12.2708 3.78391 12.1802C3.86486 12.0897 3.90965 11.9725 3.90976 11.851L3.90964 8.14222Z" fill="white" style="fill:white;fill-opacity:1;"/>
<path d="M3.8877 14.1353C4.93147 14.8946 6.16499 15.3505 7.45176 15.4523C8.73854 15.554 10.0284 15.2979 11.1786 14.7121C12.3288 14.1262 13.2945 13.2337 13.9689 12.1331C14.6432 11.0324 15 9.76671 14.9997 8.47591C14.9997 8.31484 14.9922 8.1555 14.9815 7.99707C12.4252 11.8096 7.7052 13.592 3.88791 14.1347" fill="white" style="fill:white;fill-opacity:1;"/>
</g>
</svg>
