<svg width="28" height="29" viewBox="0 0 28 29" fill="none" xmlns="http://www.w3.org/2000/svg">
<path d="M1 14.5C1 7.3203 6.8203 1.5 14 1.5C21.1797 1.5 27 7.3203 27 14.5C27 21.6797 21.1797 27.5 14 27.5C6.8203 27.5 1 21.6797 1 14.5Z" fill="#202224" style="fill:#202224;fill:color(display-p3 0.1255 0.1333 0.1412);fill-opacity:1;"/>
<path d="M1 14.5C1 7.3203 6.8203 1.5 14 1.5C21.1797 1.5 27 7.3203 27 14.5C27 21.6797 21.1797 27.5 14 27.5C6.8203 27.5 1 21.6797 1 14.5Z" stroke="white" style="stroke:white;stroke-opacity:1;" stroke-width="2"/>
<path d="M19.5 10V19C19.5 19.2652 19.3946 19.5196 19.2071 19.7071C19.0196 19.8946 18.7652 20 18.5 20H9.5C9.23478 20 8.98043 19.8946 8.79289 19.7071C8.60536 19.5196 8.5 19.2652 8.5 19V10C8.5 9.73478 8.60536 9.48043 8.79289 9.29289C8.98043 9.10536 9.23478 9 9.5 9H18.5C18.7652 9 19.0196 9.10536 19.2071 9.29289C19.3946 9.48043 19.5 9.73478 19.5 10Z" fill="white" style="fill:white;fill-opacity:1;"/>
</svg>
