<svg width="28" height="29" viewBox="0 0 28 29" fill="none" xmlns="http://www.w3.org/2000/svg">
    <rect x="1" y="1.5" width="26" height="26" rx="13" fill="#202224"
        style="fill:#202224;fill:color(display-p3 0.1255 0.1333 0.1412);fill-opacity:1;" />
    <rect x="1" y="1.5" width="26" height="26" rx="13" stroke="white"
        style="stroke:white;stroke-opacity:1;" stroke-width="2" />
    <path
        d="M19.5 13.4999V19.4999C19.5 19.7651 19.3946 20.0195 19.2071 20.207C19.0196 20.3945 18.7652 20.4999 18.5 20.4999H9.5C9.23478 20.4999 8.98043 20.3945 8.79289 20.207C8.60536 20.0195 8.5 19.7651 8.5 19.4999V13.4999C8.5 13.2347 8.60536 12.9803 8.79289 12.7928C8.98043 12.6053 9.23478 12.4999 9.5 12.4999H13.5V15.4999C13.5 15.6325 13.5527 15.7597 13.6464 15.8535C13.7402 15.9472 13.8674 15.9999 14 15.9999C14.1326 15.9999 14.2598 15.9472 14.3536 15.8535C14.4473 15.7597 14.5 15.6325 14.5 15.4999V12.4999H18.5C18.7652 12.4999 19.0196 12.6053 19.2071 12.7928C19.3946 12.9803 19.5 13.2347 19.5 13.4999ZM14.5 9.20678L16.1462 10.8537C16.2401 10.9475 16.3673 11.0002 16.5 11.0002C16.6327 11.0002 16.7599 10.9475 16.8538 10.8537C16.9476 10.7598 17.0003 10.6326 17.0003 10.4999C17.0003 10.3672 16.9476 10.24 16.8538 10.1462L14.3538 7.64616C14.3073 7.59967 14.2522 7.56279 14.1915 7.53763C14.1308 7.51246 14.0657 7.49951 14 7.49951C13.9343 7.49951 13.8692 7.51246 13.8085 7.53763C13.7478 7.56279 13.6927 7.59967 13.6462 7.64616L11.1462 10.1462C11.0524 10.24 10.9997 10.3672 10.9997 10.4999C10.9997 10.6326 11.0524 10.7598 11.1463 10.8537C11.2401 10.9475 11.3673 11.0002 11.5 11.0002C11.6327 11.0002 11.7599 10.9475 11.8538 10.8537L13.5 9.20678V12.4999H14.5V9.20678Z"
        fill="white" style="fill:white;fill-opacity:1;" />
</svg>