<svg width="21" height="20" viewBox="0 0 21 20" fill="none" xmlns="http://www.w3.org/2000/svg">
<path d="M10.334 1.875C8.72701 1.875 7.15613 2.35152 5.81998 3.24431C4.48383 4.1371 3.44243 5.40605 2.82747 6.8907C2.2125 8.37535 2.0516 10.009 2.36511 11.5851C2.67861 13.1612 3.45244 14.6089 4.58875 15.7452C5.72505 16.8815 7.17278 17.6554 8.74888 17.9689C10.325 18.2824 11.9586 18.1215 13.4433 17.5065C14.9279 16.8916 16.1969 15.8502 17.0897 14.514C17.9825 13.1779 18.459 11.607 18.459 10C18.4567 7.84581 17.6 5.78051 16.0767 4.25727C14.5535 2.73403 12.4882 1.87727 10.334 1.875ZM13.459 10.625H7.20899C7.04323 10.625 6.88426 10.5592 6.76705 10.4419C6.64984 10.3247 6.58399 10.1658 6.58399 10C6.58399 9.83424 6.64984 9.67527 6.76705 9.55806C6.88426 9.44085 7.04323 9.375 7.20899 9.375H13.459C13.6247 9.375 13.7837 9.44085 13.9009 9.55806C14.0181 9.67527 14.084 9.83424 14.084 10C14.084 10.1658 14.0181 10.3247 13.9009 10.4419C13.7837 10.5592 13.6247 10.625 13.459 10.625Z" fill="#979797" style="fill:#979797;fill:color(display-p3 0.5922 0.5922 0.5922);fill-opacity:1;"/>
</svg>
