<svg width="21" height="20" viewBox="0 0 21 20" fill="none" xmlns="http://www.w3.org/2000/svg">
<path d="M10.167 1.875C8.56002 1.875 6.98914 2.35152 5.65299 3.24431C4.31684 4.1371 3.27544 5.40605 2.66047 6.8907C2.04551 8.37535 1.88461 10.009 2.19812 11.5851C2.51162 13.1612 3.28545 14.6089 4.42175 15.7452C5.55805 16.8815 7.00579 17.6554 8.58189 17.9689C10.158 18.2824 11.7916 18.1215 13.2763 17.5065C14.7609 16.8916 16.0299 15.8502 16.9227 14.514C17.8155 13.1779 18.292 11.607 18.292 10C18.2897 7.84581 17.433 5.78051 15.9097 4.25727C14.3865 2.73403 12.3212 1.87727 10.167 1.875ZM13.7342 8.56719L9.35918 12.9422C9.30114 13.0003 9.23221 13.0464 9.15633 13.0779C9.08046 13.1093 8.99913 13.1255 8.917 13.1255C8.83486 13.1255 8.75353 13.1093 8.67766 13.0779C8.60178 13.0464 8.53285 13.0003 8.47481 12.9422L6.59981 11.0672C6.48253 10.9499 6.41665 10.7909 6.41665 10.625C6.41665 10.4591 6.48253 10.3001 6.59981 10.1828C6.71708 10.0655 6.87614 9.99965 7.042 9.99965C7.20785 9.99965 7.36691 10.0655 7.48418 10.1828L8.917 11.6164L12.8498 7.68281C12.9079 7.62474 12.9768 7.57868 13.0527 7.54725C13.1286 7.51583 13.2099 7.49965 13.292 7.49965C13.3741 7.49965 13.4554 7.51583 13.5313 7.54725C13.6072 7.57868 13.6761 7.62474 13.7342 7.68281C13.7923 7.74088 13.8383 7.80982 13.8697 7.88569C13.9012 7.96156 13.9173 8.04288 13.9173 8.125C13.9173 8.20712 13.9012 8.28844 13.8697 8.36431C13.8383 8.44018 13.7923 8.50912 13.7342 8.56719Z" fill="#979797" style="fill:#979797;fill:color(display-p3 0.5922 0.5922 0.5922);fill-opacity:1;"/>
</svg>
